<svg xmlns="http://www.w3.org/2000/svg" width="170.446" height="65" viewBox="0 0 170.446 65"><defs><style>.a{fill:#42bd87;}.b{fill:#199fbf;}.c{fill:#26403a;}.d{fill:#f26e61;}</style></defs><path class="a" d="M437.017,152.581a16.766,16.766,0,0,1,18.91-5.835,19.343,19.343,0,0,1,7.492,4.969c4.637-5.617,7.776-13.1,5.069-20.082-3.855-9.911-16.91-14.466-26-10.277s-13.349,15.634-9.494,25.546a19.177,19.177,0,0,0,2.813,4.985v.015q.439.567.914,1.091c.1-.133.194-.268.3-.4Z" transform="translate(-404.491 -119.8)"/><path class="b" d="M464.975,179.57c-.25-.292-.51-.574-.773-.852l-.128.157a19.862,19.862,0,0,1-6.885,5.383A16.8,16.8,0,0,1,437.5,180a19.859,19.859,0,0,0-3.049,6.138c-3.009,10.123-.315,21.421,8.967,24.717s23.1-2.181,26.113-12.3C471.515,191.881,469.348,184.661,464.975,179.57Z" transform="translate(-405.273 -146.804)"/><path class="c" d="M460.763,179.254a19.862,19.862,0,0,0,6.885-5.383l.128-.157a19.344,19.344,0,0,0-7.492-4.969,16.766,16.766,0,0,0-18.91,5.835v.015c-.1.129-.2.264-.3.4A16.8,16.8,0,0,0,460.763,179.254Z" transform="translate(-408.847 -141.8)"/><path class="d" d="M394.095,156.8c-6.415.024-12.542,5.894-12.521,13.074s6.184,12.95,12.6,12.926,13.422-5.893,13.4-13.073S400.51,156.776,394.095,156.8Z" transform="translate(-381.574 -136.758)"/><g transform="translate(78.134 6.818)"><path class="c" d="M532.251,132.387c3.59,0,5.85,2.754,5.85,6.686s-2.222,6.686-5.85,6.686c-3.609,0-5.87-2.754-5.87-6.686S528.642,132.387,532.251,132.387Zm0,11.891c2.545,0,4.1-2.052,4.1-5.2s-1.539-5.2-4.1-5.2-4.122,2.033-4.122,5.2C528.129,142.226,529.687,144.278,532.251,144.278Z" transform="translate(-526.078 -132.387)"/><path class="c" d="M549.954,136.908H551.7v-3.267l1.576-.342v3.609h1.994v1.2h-1.994v5.6a1.713,1.713,0,0,0,.133.855c.114.209.323.3.817.3a5.679,5.679,0,0,0,1.045-.114v1.234a6.5,6.5,0,0,1-1.576.19c-.855,0-1.6-.19-1.881-.95a2.632,2.632,0,0,1-.114-.874V138.1h-1.748Z" transform="translate(-536.882 -132.805)"/><path class="c" d="M570.1,145.725h-1.577v-5.262c0-1.957-.721-2.6-2.051-2.6a2.423,2.423,0,0,0-2.394,2.64v5.224h-1.577V132.808h1.577v5.224a3.162,3.162,0,0,1,2.907-1.558,2.841,2.841,0,0,1,2.545,1.159,4.385,4.385,0,0,1,.57,2.432Z" transform="translate(-542.635 -132.58)"/><path class="c" d="M588.312,146.965a4.6,4.6,0,0,1-3.989,2.089c-2.583,0-4.312-1.766-4.312-4.787,0-2.773,1.8-4.692,4.293-4.692,2.716,0,4.065,2.052,4.065,4.749v.342h-6.762a2.824,2.824,0,0,0,2.868,3.02,3.068,3.068,0,0,0,2.7-1.538Zm-6.648-3.552h5.072c-.133-1.6-1.006-2.565-2.431-2.565A2.65,2.65,0,0,0,581.664,143.413Z" transform="translate(-550.658 -135.682)"/><path class="c" d="M603.884,141.1a3.247,3.247,0,0,0-.589-.057,2.806,2.806,0,0,0-2.659,3.039v4.73h-1.577v-9.041h1.577v1.71a2.837,2.837,0,0,1,2.735-1.938,2.12,2.12,0,0,1,.513.057Z" transform="translate(-559.388 -135.666)"/><path class="c" d="M612.143,134.821h-1.577v-2.013h1.577Zm0,10.9h-1.577v-9.042h1.577Z" transform="translate(-564.662 -132.58)"/><path class="c" d="M625.592,148.827h-1.577v-5.262c0-1.956-.722-2.6-2.052-2.6a2.423,2.423,0,0,0-2.393,2.64v5.224h-1.577v-9.042h1.577v1.349a3.162,3.162,0,0,1,2.907-1.558,2.842,2.842,0,0,1,2.545,1.159,4.384,4.384,0,0,1,.57,2.432Z" transform="translate(-568.067 -135.682)"/><path class="c" d="M637.265,149.206a2.248,2.248,0,0,0,2.488,2.09c2.184,0,2.641-1.025,2.641-3.115,0-.342.019-.912.019-.912a3.121,3.121,0,0,1-2.907,1.577c-2.374,0-4.008-1.71-4.008-4.6,0-2.869,1.709-4.673,4.008-4.673a3.319,3.319,0,0,1,2.888,1.538v-1.329h1.577v8.491a6.129,6.129,0,0,1-.4,2.469c-.589,1.349-1.843,1.843-3.837,1.843-2.792,0-3.723-1.482-3.951-3.134Zm2.507-8.319c-1.614,0-2.659,1.291-2.659,3.343,0,2.013.969,3.267,2.621,3.267,1.6,0,2.811-.988,2.811-3.248C642.546,141.97,641.349,140.887,639.773,140.887Z" transform="translate(-576.09 -135.682)"/><path class="c" d="M533.59,178.99a4.587,4.587,0,0,1-3.818,1.843c-2.222,0-3.951-1.349-3.951-3.666,0-2.052,1.329-3.039,3.039-3.913l-.209-.285a4.265,4.265,0,0,1-1.215-2.735,2.874,2.874,0,0,1,3.1-2.773c2.032,0,3.039,1.234,3.039,2.659,0,1.387-.8,2.546-2.432,3.476l2.317,2.792a17.511,17.511,0,0,0,.551-2.241l1.444.361a10.925,10.925,0,0,1-.988,3.154l2.583,2.944h-2.07Zm-3.875-4.692c-1.178.646-2.279,1.387-2.279,2.812a2.324,2.324,0,0,0,2.507,2.317,3.2,3.2,0,0,0,2.754-1.558Zm.551-1.766c1.026-.57,1.728-1.273,1.728-2.241a1.41,1.41,0,0,0-1.463-1.481,1.376,1.376,0,0,0-1.482,1.444,2.985,2.985,0,0,0,.855,1.823Z" transform="translate(-525.821 -148.462)"/><path class="c" d="M552.616,180.8V167.881h5.053a5.91,5.91,0,0,1,2.83.474,3.039,3.039,0,0,1,1.691,2.888,2.711,2.711,0,0,1-1.957,2.716,3.192,3.192,0,0,1,2.394,3.173,3.29,3.29,0,0,1-1.766,3.1,5.848,5.848,0,0,1-3.058.57Zm6.877-11.15a4.774,4.774,0,0,0-1.938-.247h-3.267v3.989h3.267a4.845,4.845,0,0,0,1.919-.266,1.811,1.811,0,0,0,1.064-1.729A1.833,1.833,0,0,0,559.492,169.647Zm-5.2,9.65h3.438a5.363,5.363,0,0,0,1.995-.228,2.2,2.2,0,0,0,1.253-2.032,2.111,2.111,0,0,0-.95-1.8,4.383,4.383,0,0,0-2.3-.4h-3.438Z" transform="translate(-538.102 -148.655)"/><path class="c" d="M581.9,182.038a4.606,4.606,0,0,1-3.99,2.089c-2.583,0-4.312-1.766-4.312-4.787,0-2.773,1.8-4.692,4.293-4.692,2.716,0,4.065,2.051,4.065,4.749v.342H575.2a2.824,2.824,0,0,0,2.868,3.02,3.068,3.068,0,0,0,2.7-1.538Zm-6.648-3.552h5.072c-.133-1.6-1.006-2.565-2.431-2.565A2.65,2.65,0,0,0,575.253,178.486Z" transform="translate(-547.72 -151.757)"/><path class="c" d="M594.259,180.8h-1.577V167.881h1.577Z" transform="translate(-556.466 -148.655)"/><path class="c" d="M603.272,174.649c2.545,0,4.312,1.861,4.312,4.768,0,2.888-1.729,4.711-4.312,4.711s-4.312-1.823-4.312-4.711C598.96,176.51,600.727,174.649,603.272,174.649Zm0,8.168c1.6,0,2.7-1.272,2.7-3.419,0-2.185-1.063-3.457-2.7-3.457s-2.7,1.291-2.7,3.457S601.676,182.817,603.272,182.817Z" transform="translate(-559.343 -151.757)"/><path class="c" d="M625.848,183.9h-1.577v-5.262c0-1.957-.721-2.6-2.051-2.6a2.423,2.423,0,0,0-2.394,2.64V183.9H618.25v-9.041h1.576v1.349a3.162,3.162,0,0,1,2.907-1.558,2.841,2.841,0,0,1,2.545,1.159,4.385,4.385,0,0,1,.57,2.432Z" transform="translate(-568.184 -151.757)"/><path class="c" d="M637.272,184.279a2.248,2.248,0,0,0,2.488,2.09c2.185,0,2.641-1.025,2.641-3.115,0-.342.019-.912.019-.912a3.121,3.121,0,0,1-2.906,1.576c-2.374,0-4.008-1.709-4.008-4.6,0-2.869,1.709-4.673,4.008-4.673a3.319,3.319,0,0,1,2.888,1.538v-1.329h1.577v8.491a6.129,6.129,0,0,1-.4,2.469c-.589,1.349-1.843,1.843-3.837,1.843-2.792,0-3.723-1.482-3.951-3.134Zm2.507-8.319c-1.614,0-2.659,1.291-2.659,3.343,0,2.013.969,3.267,2.621,3.267,1.6,0,2.811-.988,2.811-3.248C642.553,177.043,641.356,175.96,639.78,175.96Z" transform="translate(-576.093 -151.757)"/><path class="c" d="M657.246,169.894h-1.577v-2.013h1.577Zm0,10.9h-1.577v-9.041h1.577Z" transform="translate(-585.335 -148.655)"/><path class="c" d="M670.695,183.9h-1.576v-5.262c0-1.957-.722-2.6-2.052-2.6a2.423,2.423,0,0,0-2.393,2.64V183.9H663.1v-9.041h1.577v1.349a3.161,3.161,0,0,1,2.906-1.558,2.841,2.841,0,0,1,2.545,1.159,4.381,4.381,0,0,1,.57,2.432Z" transform="translate(-588.739 -151.757)"/><path class="c" d="M682.368,184.279a2.248,2.248,0,0,0,2.488,2.09c2.185,0,2.641-1.025,2.641-3.115,0-.342.019-.912.019-.912a3.12,3.12,0,0,1-2.906,1.576c-2.375,0-4.008-1.709-4.008-4.6,0-2.869,1.709-4.673,4.008-4.673a3.318,3.318,0,0,1,2.887,1.538v-1.329h1.577v8.491a6.13,6.13,0,0,1-.4,2.469c-.589,1.349-1.843,1.843-3.837,1.843-2.792,0-3.723-1.482-3.951-3.134Zm2.507-8.319c-1.614,0-2.659,1.291-2.659,3.343,0,2.013.968,3.267,2.621,3.267,1.6,0,2.811-.988,2.811-3.248C687.649,177.043,686.452,175.96,684.876,175.96Z" transform="translate(-596.762 -151.757)"/><path class="c" d="M529.246,215.87h-1.672V202.953h1.672Z" transform="translate(-526.624 -164.73)"/><path class="c" d="M543.039,218.973h-1.577v-5.262c0-1.957-.722-2.6-2.051-2.6a2.423,2.423,0,0,0-2.394,2.64v5.224h-1.576v-9.042h1.576v1.348a3.163,3.163,0,0,1,2.907-1.557,2.842,2.842,0,0,1,2.545,1.159,4.386,4.386,0,0,1,.57,2.432Z" transform="translate(-530.23 -167.832)"/><path class="c" d="M558.51,212.172a3.317,3.317,0,0,0-2.508-1.14c-1.006,0-1.785.437-1.785,1.234,0,.855.684,1.083,2.032,1.368l1.045.209c1.444.3,2.6.912,2.6,2.488,0,1.842-1.614,2.868-3.78,2.868a4.991,4.991,0,0,1-3.875-1.786l1.025-1.063a3.712,3.712,0,0,0,2.945,1.538c1.234,0,2.071-.512,2.071-1.425,0-.855-.665-1.045-1.577-1.215L555.47,215c-1.558-.3-2.85-.931-2.85-2.526,0-1.938,1.785-2.754,3.457-2.754a4.565,4.565,0,0,1,3.457,1.425Z" transform="translate(-537.93 -167.832)"/><path class="c" d="M567.82,207.054h1.748v-3.267l1.576-.342v3.61h1.995v1.2h-1.995v5.6a1.7,1.7,0,0,0,.133.855c.114.209.323.3.817.3a5.689,5.689,0,0,0,1.045-.114v1.234a6.5,6.5,0,0,1-1.577.19c-.855,0-1.6-.19-1.881-.95a2.631,2.631,0,0,1-.114-.874v-6.25H567.82Z" transform="translate(-545.07 -164.955)"/><path class="c" d="M581.949,204.967h-1.577v-2.014h1.577Zm0,10.9h-1.577v-9.041h1.577Z" transform="translate(-550.823 -164.73)"/><path class="c" d="M585.7,207.054h1.748v-3.267l1.576-.342v3.61h2v1.2h-2v5.6a1.7,1.7,0,0,0,.133.855c.114.209.323.3.817.3a5.692,5.692,0,0,0,1.045-.114v1.234a6.5,6.5,0,0,1-1.577.19c-.855,0-1.6-.19-1.881-.95a2.631,2.631,0,0,1-.114-.874v-6.25H585.7Z" transform="translate(-553.264 -164.955)"/><path class="c" d="M598.181,210.108h1.577v5.2a4,4,0,0,0,.3,1.824,1.726,1.726,0,0,0,1.748.855c1.519,0,2.3-1.235,2.3-2.7v-5.185h1.577v9.042h-1.577v-1.33a3.061,3.061,0,0,1-2.888,1.558,2.936,2.936,0,0,1-2.26-.855c-.57-.646-.779-1.292-.779-3.267Z" transform="translate(-558.986 -168.009)"/><path class="c" d="M614.47,207.054h1.747v-3.267l1.577-.342v3.61h1.995v1.2h-1.995v5.6a1.71,1.71,0,0,0,.133.855c.114.209.323.3.817.3a5.681,5.681,0,0,0,1.045-.114v1.234a6.5,6.5,0,0,1-1.577.19c-.855,0-1.6-.19-1.88-.95a2.614,2.614,0,0,1-.114-.874v-6.25H614.47Z" transform="translate(-566.452 -164.955)"/><path class="c" d="M634,217.111a4.607,4.607,0,0,1-3.989,2.089c-2.583,0-4.312-1.766-4.312-4.787,0-2.773,1.8-4.692,4.293-4.692,2.716,0,4.065,2.051,4.065,4.749v.342H627.3a2.824,2.824,0,0,0,2.868,3.02,3.07,3.07,0,0,0,2.7-1.538Zm-6.648-3.553h5.072c-.133-1.6-1.006-2.564-2.432-2.564A2.65,2.65,0,0,0,627.353,213.559Z" transform="translate(-571.599 -167.832)"/></g></svg>